<svg width="19.599609" height="19.610107" viewBox="0 0 19.5996 19.6101" fill="none" xmlns="http://www.w3.org/2000/svg" xmlns:xlink="http://www.w3.org/1999/xlink">
	<desc>
			Created with Pixso.
	</desc>
	<defs/>
	<path id="Subtract" d="M18.3701 7.5C17.8682 7.49854 17.417 7.19482 17.2266 6.73071C17.0361 6.2666 17.1436 5.7334 17.5 5.37988C17.9775 4.89062 17.9775 4.10938 17.5 3.62012L16 2.12012C15.5107 1.64233 14.7295 1.64233 14.2402 2.12012C14.0146 2.35913 13.6992 2.49341 13.3701 2.48999C13.0381 2.49268 12.7178 2.36182 12.4834 2.12695C12.248 1.89185 12.1172 1.57227 12.1201 1.23999C12.1201 0.555176 11.5645 0 10.8799 0L8.73047 0C8.04492 0 7.49023 0.555176 7.49023 1.23999C7.49316 1.57227 7.3623 1.89185 7.12695 2.12695C6.8916 2.36182 6.57227 2.49268 6.24023 2.48999C5.91113 2.49341 5.5957 2.35913 5.37012 2.12012C4.88086 1.64233 4.09961 1.64233 3.61035 2.12012L2.11035 3.62012C1.63281 4.10938 1.63281 4.89062 2.11035 5.37988C2.46582 5.7334 2.57422 6.2666 2.38379 6.73071C2.19336 7.19482 1.74121 7.49854 1.24023 7.5C0.554688 7.5 0 8.05518 0 8.73999L0 10.8799C0 11.209 0.130859 11.5242 0.363281 11.7568C0.595703 11.9893 0.911133 12.1201 1.24023 12.1201C1.74121 12.1216 2.19336 12.425 2.38379 12.8892C2.57422 13.3533 2.46582 13.8865 2.11035 14.24C1.63281 14.7295 1.63281 15.5105 2.11035 16L3.61035 17.5C4.09961 17.9775 4.88086 17.9775 5.37012 17.5C5.5957 17.2607 5.91113 17.1267 6.24023 17.1299C6.57031 17.1274 6.88867 17.2568 7.12305 17.4897C7.3584 17.7224 7.49023 18.0393 7.49023 18.3701C7.49023 19.0549 8.04492 19.6101 8.73047 19.6101L10.8701 19.6101C11.5547 19.6101 12.1104 19.0549 12.1104 18.3701C12.1104 18.0393 12.2422 17.7224 12.4766 17.4897C12.7119 17.2568 13.0293 17.1274 13.3604 17.1299C13.6885 17.1267 14.0039 17.2607 14.2305 17.5C14.7197 17.9775 15.501 17.9775 15.9902 17.5L17.4902 16C17.9678 15.5105 17.9678 14.7295 17.4902 14.24C17.1338 13.8865 17.0264 13.3533 17.2168 12.8892C17.4072 12.425 17.8584 12.1216 18.3604 12.1201C19.0449 12.1201 19.5996 11.5649 19.5996 10.8799L19.5996 8.73999C19.5996 8.05908 19.0508 7.50537 18.3701 7.5ZM6.33984 9.81006C6.33984 7.89917 7.88867 6.3501 9.7998 6.3501C10.7178 6.3501 11.5977 6.7146 12.2471 7.36353C12.8955 8.01221 13.2598 8.89233 13.2598 9.81006C13.2598 11.7209 11.7109 13.27 9.7998 13.27C7.88867 13.27 6.33984 11.7209 6.33984 9.81006Z" clip-rule="evenodd" fill="#80858B" fill-opacity="1.000000" fill-rule="evenodd"/>
</svg>
