<svg width="14.000977" height="19.336426" viewBox="0 0 14.001 19.3364" fill="none" xmlns="http://www.w3.org/2000/svg" xmlns:xlink="http://www.w3.org/1999/xlink">
	<desc>
			Created with Pixso.
	</desc>
	<defs/>
	<path id="Path" d="M7.05 0L5.68 2.8C4.7 4.8 3.38 6.61 1.8 8.17L1.62 8.35C0.59 9.34 0.01 10.69 0 12.12L0 12.3C-0.03 15.08 1.63 17.61 4.2 18.68L4.45 18.79C6.14 19.51 8.04 19.51 9.73 18.79L9.79 18.79C12.37 17.67 14.03 15.1 14 12.29L14 7.94C13.13 9.91 11.57 11.49 9.61 12.37C9.61 12.37 9.61 12.37 9.55 12.37C9.49 12.37 8.79 12.65 8.49 12.37C8.22 12.09 8.19 11.67 8.43 11.37L8.5 11.32L8.55 11.32C10.84 9.57 11.38 6.34 9.77 3.94C8.47 1.96 7.05 0 7.05 0Z" fill="#80858B" fill-opacity="1.000000" fill-rule="nonzero"/>
</svg>
