<svg width="13.500000" height="18.024902" viewBox="0 0 13.5 18.0249" fill="none" xmlns="http://www.w3.org/2000/svg" xmlns:xlink="http://www.w3.org/1999/xlink">
	<desc>
			Created with Pixso.
	</desc>
	<defs/>
	<path id="Path" d="M11.76 17.78L7.48 14.49C7.07 14.18 6.5 14.18 6.09 14.49L1.76 17.78C1.45 18.03 1.02 18.09 0.65 17.93C0.28 17.77 0.02 17.41 0 17.01L0 2.95C0.03 2.12 0.4 1.35 1.01 0.8C1.62 0.24 2.43 -0.04 3.25 0L10.25 0C11.08 -0.04 11.89 0.26 12.5 0.82C13.11 1.39 13.47 2.17 13.5 3L13.5 17.01C13.46 17.4 13.21 17.74 12.85 17.9C12.5 18.06 12.08 18.01 11.76 17.78Z" fill="#80858B" fill-opacity="1.000000" fill-rule="nonzero"/>
</svg>
