<svg width="158.000000" height="40.000000" viewBox="0 0 158 40" fill="none" xmlns="http://www.w3.org/2000/svg" xmlns:xlink="http://www.w3.org/1999/xlink">
	<desc>
			Created with Pixso.
	</desc>
	<defs/>
	<path id="pixema" d="M5.51 9.67L6.01 12.87C6.96 11.77 8.26 10.87 9.91 10.16C11.6 9.45 13.3 9.1 15.01 9.1C20.22 9.1 22.82 13 22.82 20.82C22.82 25.02 22.12 27.96 20.71 29.65C19.33 31.31 17.16 32.14 14.19 32.14C11.12 32.14 8.6 31.43 6.61 30.01C6.76 31.52 6.81 33.08 6.75 34.71L6.75 40L0 40L0 9.67L5.51 9.67ZM6.75 16.33L6.75 26.37C9.13 26.96 10.85 27.25 11.89 27.25C13.39 27.25 14.42 26.84 14.97 26.01C15.55 25.18 15.84 23.45 15.84 20.82C15.84 18.24 15.58 16.51 15.06 15.62C14.54 14.7 13.62 14.25 12.3 14.25C10.8 14.25 8.95 14.94 6.75 16.33Z" fill="#7B61FF" fill-opacity="1.000000" fill-rule="nonzero"/>
	<path id="pixema" d="M30.59 0L33.62 0C34.93 0 35.59 0.63 35.59 1.9L35.59 4.3C35.59 5.57 34.93 6.21 33.62 6.21L30.59 6.21C29.27 6.21 28.61 5.57 28.61 4.3L28.61 1.9C28.61 0.63 29.27 0 30.59 0ZM35.5 31.56L28.75 31.56L28.75 9.67L35.5 9.67L35.5 31.56Z" fill="#7B61FF" fill-opacity="1.000000" fill-rule="nonzero"/>
	<path id="pixema" d="M52.58 22.37L52.3 22.37L46.93 31.56L39.95 31.56L46.93 20.33L40.45 9.67L47.39 9.67L52.21 18.11L52.67 18.11L57.49 9.67L64.43 9.67L57.95 20.33L64.93 31.56L57.95 31.56L52.58 22.37Z" fill="#7B61FF" fill-opacity="1.000000" fill-rule="nonzero"/>
	<path id="pixema" d="M83.67 22.81L75.49 22.81C75.71 24.41 76.2 25.49 76.96 26.06C77.76 26.59 79.06 26.85 80.86 26.85C83.28 26.85 86.1 26.69 89.31 26.37L89.96 30.45C87.6 31.55 84.31 32.09 80.08 32.09C75.83 32.09 72.8 31.21 70.99 29.43C69.18 27.65 68.28 24.72 68.28 20.64C68.28 16.35 69.15 13.34 70.9 11.63C72.67 9.91 75.64 9.05 79.81 9.05C83.57 9.05 86.3 9.69 87.98 10.96C89.67 12.2 90.52 14.11 90.55 16.69C90.55 18.73 90 20.27 88.9 21.3C87.83 22.31 86.08 22.81 83.67 22.81ZM75.35 18.86L81.78 18.86C82.61 18.86 83.16 18.67 83.44 18.29C83.74 17.9 83.9 17.34 83.9 16.6C83.9 15.56 83.62 14.85 83.07 14.47C82.52 14.05 81.51 13.85 80.04 13.85C78.29 13.85 77.1 14.19 76.46 14.87C75.81 15.52 75.45 16.85 75.35 18.86Z" fill="#FFFFFF" fill-opacity="1.000000" fill-rule="nonzero"/>
	<path id="pixema" d="M101.4 9.67L101.86 12.87C104.73 10.32 107.61 9.05 110.49 9.05C113.55 9.05 115.5 10.24 116.32 12.6C118.99 10.24 121.74 9.05 124.59 9.05C126.64 9.05 128.2 9.57 129.27 10.61C130.35 11.64 130.88 13.15 130.88 15.13L130.88 31.56L124.13 31.56L124.13 17.18C124.13 16.23 123.96 15.56 123.62 15.18C123.29 14.79 122.66 14.6 121.74 14.6C121.01 14.6 120.3 14.73 119.63 15C118.96 15.27 117.97 15.79 116.69 16.55L116.69 31.56L110.17 31.56L110.17 17.18C110.17 16.23 109.97 15.56 109.57 15.18C109.2 14.79 108.59 14.6 107.73 14.6C106.54 14.6 104.87 15.24 102.73 16.51L102.73 31.56L95.98 31.56L95.98 9.67L101.4 9.67Z" fill="#FFFFFF" fill-opacity="1.000000" fill-rule="nonzero"/>
	<path id="pixema" d="M137.93 14.56L137.28 10.12C141.35 9.41 145.29 9.05 149.09 9.05C152.15 9.05 154.4 9.66 155.84 10.87C157.28 12.06 158 14.13 158 17.09L158 31.56L152.62 31.56L151.93 28.23C149.67 30.81 146.88 32.09 143.57 32.09C141.4 32.09 139.63 31.55 138.25 30.45C136.87 29.33 136.18 27.77 136.18 25.79L136.18 23.57C136.18 21.82 136.79 20.46 138.02 19.48C139.24 18.51 140.94 18.02 143.12 18.02L151.2 18.02L151.2 17.04C151.17 15.92 150.89 15.16 150.37 14.78C149.88 14.39 148.92 14.2 147.48 14.2C144.97 14.2 141.78 14.32 137.93 14.56ZM142.89 24.06L142.89 24.9C142.89 26.41 143.77 27.16 145.55 27.16C147.39 27.16 149.27 26.45 151.2 25.03L151.2 21.97L145.09 21.97C143.62 22 142.89 22.7 142.89 24.06Z" fill="#FFFFFF" fill-opacity="1.000000" fill-rule="nonzero"/>
</svg>
