<svg width="16.000000" height="14.000000" viewBox="0 0 16 14" fill="none" xmlns="http://www.w3.org/2000/svg" xmlns:xlink="http://www.w3.org/1999/xlink">
	<desc>
			Created with Pixso.
	</desc>
	<defs/>
	<path id="Vector 1 (Stroke)" d="M0 1C0 0.44 0.44 0 1 0L15 0C15.55 0 16 0.44 16 1C16 1.55 15.55 2 15 2L1 2C0.44 2 0 1.55 0 1ZM5 7C5 6.44 5.44 6 6 6L15 6C15.55 6 16 6.44 16 7C16 7.55 15.55 8 15 8L6 8C5.44 8 5 7.55 5 7ZM9 13C9 12.44 9.44 12 10 12L15 12C15.55 12 16 12.44 16 13C16 13.55 15.55 14 15 14L10 14C9.44 14 9 13.55 9 13Z" fill="#AFB2B6" fill-opacity="1.000000" fill-rule="evenodd"/>
</svg>
