<!-- icon666.com - MILLIONS vector ICONS FREE --><svg clip-rule="evenodd" fill-rule="evenodd" stroke-linejoin="round" stroke-miterlimit="2" viewBox="0 0 32 32" xmlns="http://www.w3.org/2000/svg"><path d="m16 2c-3.863 0-7 3.137-7 7s3.137 7 7 7 7-3.137 7-7-3.137-7-7-7zm0 2c2.76 0 5 2.24 5 5s-2.24 5-5 5-5-2.24-5-5 2.24-5 5-5z" fill="#000000" style="fill: rgb(197, 173, 213);"></path><path d="m4 28h12c.552 0 1 .448 1 1s-.448 1-1 1h-13c-.552 0-1-.448-1-1 0 0 0-.825 0-2 0-4.971 4.029-9 9-9h5c.552 0 1 .448 1 1s-.448 1-1 1h-5c-3.866 0-7 3.134-7 7z" fill="#000000" style="fill: rgb(197, 173, 213);"></path><path d="m24.501 18c-3.587 0-6.499 2.912-6.499 6.499s2.912 6.499 6.499 6.499 6.499-2.912 6.499-6.499-2.912-6.499-6.499-6.499zm0 2c2.483 0 4.499 2.016 4.499 4.499s-2.016 4.499-4.499 4.499-4.499-2.016-4.499-4.499 2.016-4.499 4.499-4.499z" fill="#000000" style="fill: rgb(197, 173, 213);"></path><path d="m24.085 24.564 2.199-2.261c.385-.396 1.019-.405 1.414-.02.396.385.405 1.018.02 1.414l-2.916 2.998c-.188.194-.447.303-.717.303s-.528-.109-.717-.303l-2.084-2.143c-.385-.396-.376-1.029.02-1.414s1.029-.376 1.414.02z" fill="#000000" style="fill: rgb(197, 173, 213);"></path></svg>