<!-- icon666.com - MILLIONS vector ICONS FREE --><svg id="Capa_1" enable-background="new 0 0 512 512" viewBox="0 0 512 512" xmlns="http://www.w3.org/2000/svg"><path d="m288.134 479.867h-273.133c-6.536 0-12.32-4.232-14.297-10.463-1.978-6.23.308-13.023 5.647-16.792 0 0 52.147-36.806 84.77-59.837 7.383-5.215 9.446-15.324 4.697-23.014-.021-.032-.04-.064-.06-.097-20.601-33.931-31.491-73.235-31.491-113.664 0-123.44 100.427-223.867 223.867-223.867s223.866 100.427 223.866 223.867-100.426 223.867-223.866 223.867zm-225.87-30h225.87c106.898 0 193.866-86.969 193.866-193.867s-86.968-193.867-193.866-193.867-193.867 86.969-193.867 193.867c0 34.92 9.374 68.825 27.109 98.052 13.016 21.138 7.336 48.898-12.946 63.226-.001.001-.002.001-.003.002-13.712 9.68-30.874 21.795-46.163 32.587zm37.512-44.841h.01z"/><path d="m288.134 399.533c-26.036 0-47.134-21.058-47.134-47.133v-80.333c0-26.299 21.352-47.134 47.134-47.134 25.806 0 47.133 20.856 47.133 47.134v80.333c0 26.029-21.057 47.133-47.133 47.133zm0-144.6c-9.374 0-17.134 7.583-17.134 17.134v80.333c0 9.449 7.639 17.133 17.134 17.133 9.485 0 17.133-7.676 17.133-17.133v-80.333c0-9.576-7.785-17.134-17.133-17.134z"/><path d="m288.134 206.733c-25.989 0-47.134-21.144-47.134-47.133s21.145-47.133 47.134-47.133 47.133 21.144 47.133 47.133-21.144 47.133-47.133 47.133zm0-64.266c-9.447 0-17.134 7.686-17.134 17.133s7.687 17.133 17.134 17.133 17.133-7.686 17.133-17.133-7.686-17.133-17.133-17.133z"/></svg>