<!-- icon666.com - MILLIONS vector ICONS FREE --><svg id="Layer_1" viewBox="0 0 300 300" xmlns="http://www.w3.org/2000/svg" data-name="Layer 1"><path d="m168.08 17.59 26.3 53.29a39.17 39.17 0 0 0 29.52 21.45l58.81 8.55a20.16 20.16 0 0 1 11.18 34.39l-42.56 41.48a39.22 39.22 0 0 0 -11.27 34.71l10 58.57a20.16 20.16 0 0 1 -29.25 21.26l-52.61-27.66a39.22 39.22 0 0 0 -36.48 0l-52.57 27.66a20.16 20.16 0 0 1 -29.25-21.29l10-58.57a39.22 39.22 0 0 0 -11.27-34.71l-42.52-41.45a20.16 20.16 0 0 1 11.18-34.39l58.81-8.55a39.17 39.17 0 0 0 29.52-21.45l26.3-53.29a20.17 20.17 0 0 1 36.16 0z"/></svg>